<svg viewBox="0 0 163 163"  xmlns="http://www.w3.org/2000/svg">
<g filter="url(#filter0_ddd_215:3757)">
<rect x="24" y="8" width="115" height="115" fill="white"/>
<rect x="30.3906" y="14.6152" width="102.106" height="101.882" stroke="#2A60FF" stroke-width="2"/>
<rect x="24" y="93.5762" width="56.1523" height="115" transform="rotate(-90 24 93.5762)" fill="white"/>
<rect x="53.4238" y="8" width="56.1523" height="115" fill="white"/>
<path d="M81.7038 49.8896C77.5375 49.8896 70.393 53.2894 70.393 59.5508C70.393 60.2031 70.6534 63.081 71.044 64.6464C71.695 64.9073 71.8252 65.2905 72.346 66.0731C72.6063 66.4645 72.8667 66.8558 72.9969 67.3776V67.0922V64.6464C72.9969 59.559 75.3405 65.9427 81.4597 62.1597C84.4542 60.3335 86.0003 59.0209 87.5627 59.6731C89.125 60.3253 89.9306 63.3419 90.4514 65.9508C90.5816 65.0377 91.4767 63.9778 91.9975 64.2387C92.5183 64.4996 92.6485 65.16 92.6485 66.0731C92.6485 68.1603 91.7452 69.2038 91.2244 69.3343C90.5735 69.3343 90.0445 69.9865 90.0445 70.6388C90.0445 72.5954 89.6784 76.5007 89.0274 77.2834C87.7254 78.9792 84.4542 80.4304 82.7617 80.9522C82.6315 81.0826 82.6478 81.1886 82.5176 81.319C81.7364 82.493 81.061 83.0393 80.2798 83.5611C80.6704 83.6915 81.183 83.8057 81.7038 83.8057C83.5266 83.8057 88.8972 81.7348 90.9803 78.9955C92.1521 77.4301 92.5264 73.4841 92.5264 71.6579C93.568 71.1361 94.8862 69.7175 94.8862 66.1954C95.0164 65.2823 94.8537 64.6464 94.7235 63.9941C96.1556 55.3847 91.4686 49.8896 81.7038 49.8896ZM83.4127 64.1572C83.2723 64.1694 83.136 64.2061 83.0058 64.2387C82.485 64.3692 75.9833 67.3613 73.119 70.8833C72.5982 69.8398 71.9391 67.7689 71.2881 66.7254C70.2465 65.2905 68.6923 64.7524 67.9111 66.3177C68.5621 67.3613 69.742 71.1361 70.393 73.6146C71.4346 77.3975 69.9943 81.4658 69.8641 83.6834H78.0827C79.9055 82.2485 80.5402 82.1099 81.5818 80.5445C82.2327 79.6314 82.9 78.0497 83.9416 76.8757C84.4624 76.3539 88.3764 73.2477 88.3764 73.2477C88.6368 72.9868 88.767 72.2123 88.3764 71.8209C87.9858 71.4296 87.465 71.4296 87.0744 71.8209L82.8837 74.6744C82.8837 74.6744 82.2409 75.0576 82.1107 74.7967C81.9805 74.4054 82.6396 74.0222 82.6396 74.0222L88.0916 70.2311C88.4822 69.8398 88.767 69.1957 88.3764 68.8043C87.9858 68.413 87.4325 68.4212 86.9117 68.6821C86.3909 68.9429 80.9308 72.3101 80.9308 72.3101C80.9308 72.3101 80.4019 72.4405 80.4019 72.3101C80.2717 72.1796 80.3042 71.9514 80.5646 71.8209C84.0799 69.3424 86.0329 68.4293 87.0744 67.9075C87.7254 67.6466 87.701 66.7091 87.4406 66.3177C87.05 65.9264 86.4072 65.9427 86.0166 66.0731C85.4958 66.2036 84.0718 66.4482 78.7337 70.2311C78.4733 70.492 78.2129 70.6469 78.0827 70.5165C77.9525 70.386 77.8223 70.2474 78.0827 69.9865C79.9055 68.2907 83.9172 66.2117 84.3078 65.9508C84.6983 65.6899 84.9832 64.8747 84.5926 64.4833C84.2996 64.1898 83.8338 64.1205 83.4127 64.1572Z" fill="#F76C30"/>
<path d="M109.576 65.5C109.576 81.006 97.006 93.5762 81.5 93.5762C65.994 93.5762 53.4238 81.006 53.4238 65.5C53.4238 49.994 65.994 37.4238 81.5 37.4238C97.006 37.4238 109.576 49.994 109.576 65.5ZM55.0567 65.5C55.0567 80.1042 66.8958 91.9433 81.5 91.9433C96.1042 91.9433 107.943 80.1042 107.943 65.5C107.943 50.8958 96.1042 39.0567 81.5 39.0567C66.8958 39.0567 55.0567 50.8958 55.0567 65.5Z" fill="#2A60FF"/>
<path d="M57.5231 66.3213C57.0942 66.3001 56.7625 65.935 56.7966 65.507C57.2918 59.2807 60.0283 53.4344 64.5128 49.0618C68.9973 44.6892 74.911 42.1012 81.1477 41.7634C81.5765 41.7402 81.9331 42.081 81.9434 42.5103C81.9537 42.9396 81.6138 43.2946 81.1851 43.3187C75.341 43.6465 69.8017 46.0767 65.5984 50.1751C61.395 54.2736 58.8257 59.7497 58.3504 65.5836C58.3155 66.0116 57.952 66.3424 57.5231 66.3213Z" fill="#2A60FF"/>
</g>
<defs>
<filter id="filter0_ddd_215:3757" x="0" y="0" width="163" height="163" filterUnits="userSpaceOnUse" color-interpolation-filters="sRGB">
<feFlood flood-opacity="0" result="BackgroundImageFix"/>
<feColorMatrix in="SourceAlpha" type="matrix" values="0 0 0 0 0 0 0 0 0 0 0 0 0 0 0 0 0 0 127 0" result="hardAlpha"/>
<feOffset dy="16"/>
<feGaussianBlur stdDeviation="12"/>
<feComposite in2="hardAlpha" operator="out"/>
<feColorMatrix type="matrix" values="0 0 0 0 0.14902 0 0 0 0 0.160784 0 0 0 0 0.184314 0 0 0 0.15 0"/>
<feBlend mode="normal" in2="BackgroundImageFix" result="effect1_dropShadow_215:3757"/>
<feColorMatrix in="SourceAlpha" type="matrix" values="0 0 0 0 0 0 0 0 0 0 0 0 0 0 0 0 0 0 127 0" result="hardAlpha"/>
<feOffset dy="4"/>
<feGaussianBlur stdDeviation="2"/>
<feComposite in2="hardAlpha" operator="out"/>
<feColorMatrix type="matrix" values="0 0 0 0 0.14902 0 0 0 0 0.160784 0 0 0 0 0.184314 0 0 0 0.1 0"/>
<feBlend mode="normal" in2="effect1_dropShadow_215:3757" result="effect2_dropShadow_215:3757"/>
<feColorMatrix in="SourceAlpha" type="matrix" values="0 0 0 0 0 0 0 0 0 0 0 0 0 0 0 0 0 0 127 0" result="hardAlpha"/>
<feOffset dy="-1"/>
<feGaussianBlur stdDeviation="1"/>
<feComposite in2="hardAlpha" operator="out"/>
<feColorMatrix type="matrix" values="0 0 0 0 0 0 0 0 0 0 0 0 0 0 0 0 0 0 0.05 0"/>
<feBlend mode="normal" in2="effect2_dropShadow_215:3757" result="effect3_dropShadow_215:3757"/>
<feBlend mode="normal" in="SourceGraphic" in2="effect3_dropShadow_215:3757" result="shape"/>
</filter>
</defs>
</svg>
